<?xml version="1.0" encoding="utf-8"?>
<!-- Generator: Adobe Illustrator 25.0.0, SVG Export Plug-In . SVG Version: 6.00 Build 0)  -->
<svg version="1.1" id="Warstwa_1" xmlns="http://www.w3.org/2000/svg" xmlns:xlink="http://www.w3.org/1999/xlink" x="0px" y="0px"
	 viewBox="0 0 50 50" style="enable-background:new 0 0 50 50;" xml:space="preserve">
<style type="text/css">
	.st0{fill:#FFFFFF;}
</style>
<path class="st0" d="M14.25,9.2v31.6h21.5V9.2H14.25z M17.6,24.65l-0.45-0.26l-0.47,0.22l0.11-0.51l-0.36-0.38l0.52-0.05l0.25-0.46
	l0.21,0.48l0.51,0.1l-0.39,0.35L17.6,24.65z M26.77,28.62c-3.49,0-6.32-2.83-6.32-6.32c0-3.49,2.83-6.32,6.32-6.32
	c3.49,0,6.32,2.83,6.32,6.32C33.09,25.79,30.26,28.62,26.77,28.62z M33.09,14.44l-0.64-0.25l-0.57,0.38l0.04-0.68l-0.54-0.42
	l0.66-0.17l0.24-0.64l0.37,0.58l0.68,0.03l-0.44,0.53L33.09,14.44z"/>
</svg>
